<?xml version="1.0" encoding="UTF-8" standalone="no"?>
<!-- Created with Inkscape (http://www.inkscape.org/) -->

<svg
   width="292.85742mm"
   height="53.356091mm"
   viewBox="0 0 292.85742 53.356091"
   version="1.1"
   id="svg1"
   xmlns="http://www.w3.org/2000/svg"
   xmlns:svg="http://www.w3.org/2000/svg">
  <defs
     id="defs1" />
  <g
     id="layer1"
     transform="translate(-1.6290615,-0.84860001)">
    <g
       id="g5"
       transform="rotate(-30,78.961746,50.394942)">
      <path
         style="fill-rule:evenodd;stroke-linecap:round"
         d="M 98.244141,46.384766 A 0.22050001,0.22050001 0 0 0 98.023437,46.605469 0.22050001,0.22050001 0 0 0 98.244141,46.826172 H 111.59961 A 0.22050001,0.22050001 0 0 0 111.82031,46.605469 0.22050001,0.22050001 0 0 0 111.59961,46.384766 Z"
         id="path390-0" />
      <path
         id="rect5"
         style="stroke-width:0.441;stroke-linecap:round;stroke-linejoin:round;paint-order:markers stroke fill"
         d="M 100.16487,45.956651 V 47.25399 A 0.10893023,0.10893023 140.53163 0 1 100.03504,47.360896 L 96.380351,46.646309 A 0.0417648,0.0417648 90.000007 0 1 96.380351,46.564331 L 100.03504,45.849745 A 0.10893026,0.10893026 39.468376 0 1 100.16487,45.956651 Z" />
    </g>
    <path
       style="fill:#000000;fill-opacity:1;fill-rule:evenodd;stroke:none;stroke-width:0.441213;stroke-linecap:square;stroke-linejoin:round;stroke-miterlimit:100;stroke-opacity:1"
       d="M 138.35737,43.53666 C 138.06151,43.536656 137.81447,43.782835 137.81447,44.078695 V 52.260959 C 137.81447,52.556823 138.06151,52.803863 138.35737,52.803858 H 150.3813 C 150.67716,52.803863 150.92333,52.556823 150.92333,52.260959 V 44.078695 C 150.92333,43.782835 150.67716,43.536656 150.3813,43.53666 Z M 138.43234,44.153666 H 150.30546 V 52.185988 H 138.43234 Z"
       id="rect653-0-3" />
    <path
       id="path653-2-8"
       style="fill-rule:evenodd;stroke-width:0.475937;stroke-linecap:square;stroke-miterlimit:100"
       d="M 144.97017,47.318047 A 0.60103799,0.60103799 0 0 1 144.36913,47.919086 0.60103799,0.60103799 0 0 1 143.76809,47.318047 0.60103799,0.60103799 0 0 1 144.36913,46.717009 0.60103799,0.60103799 0 0 1 144.97017,47.318047 Z" />
    <path
       id="rect654-1-6"
       style="fill:#000000;fill-opacity:1;fill-rule:evenodd;stroke:none;stroke-width:0.441213;stroke-linecap:square;stroke-miterlimit:100;stroke-opacity:1"
       d="M 141.84502,45.045455 H 146.89323 A 0.23347531,0.23347531 0 0 1 147.12671,45.278932 V 45.694405 A 0.23347531,0.23347531 0 0 1 146.89323,45.927882 H 141.84502 A 0.23347531,0.23347531 0 0 1 141.61154,45.694405 V 45.278932 A 0.23347531,0.23347531 0 0 1 141.84502,45.045455 Z" />
    <path
       style="fill-rule:evenodd;stroke-linecap:round"
       d="M 15.775391,17.714844 A 0.44121301,0.44121301 0 0 0 15.333984,18.15625 0.44121301,0.44121301 0 0 0 15.775391,18.597656 H 281.25195 A 0.44121301,0.44121301 0 0 0 281.69336,18.15625 0.44121301,0.44121301 0 0 0 281.25195,17.714844 Z"
       id="path363" />
    <path
       style="fill-rule:evenodd;stroke-linecap:round;stroke-linejoin:round"
       d="M 76.195312,19.294922 A 0.44121301,0.44121301 0 0 0 75.755859,19.736328 0.44121301,0.44121301 0 0 0 76.195312,20.177734 H 84.863281 L 102.05664,37.369141 A 0.44125713,0.44125713 0 0 0 102.36914,37.498047 H 241.52344 A 0.44121301,0.44121301 0 0 0 241.96484,37.058594 0.44121301,0.44121301 0 0 0 241.52344,36.617187 H 102.55078 L 85.359375,19.423828 A 0.44125713,0.44125713 0 0 0 85.046875,19.294922 Z"
       id="path372" />
    <path
       style="font-weight:bold;font-stretch:condensed;font-size:6.01435px;line-height:125%;font-family:'Gravur Condensed';-inkscape-font-specification:'Gravur Condensed,  Bold Condensed';text-align:center;letter-spacing:0px;word-spacing:0px;text-anchor:middle;stroke-width:0.420461px"
       d="M 283.03652,13.771594 C 283.03652,13.729494 283.02449,13.681379 283.00645,13.639279 L 282.00806,11.588385 282.89819,10.277257 C 282.93427,10.223128 282.9463,10.168999 282.9463,10.11487 282.9463,9.9584965 282.82,9.8261808 282.64558,9.8261808 282.5674,9.8261808 282.47718,9.8622669 282.41704,9.9524822 L 281.20815,11.73273 V 10.11487 C 281.20815,9.9224104 281.06381,9.8261808 280.91947,9.8261808 280.77512,9.8261808 280.63078,9.9224104 280.63078,10.11487 V 13.76558 C 280.63078,13.958039 280.77512,14.054269 280.91947,14.054269 281.06381,14.054269 281.20815,13.958039 281.20815,13.76558 V 12.761184 L 281.63517,12.141706 282.4832,13.891881 C 282.53733,14.006154 282.63957,14.054269 282.7358,14.054269 282.91022,14.054269 283.03652,13.921953 283.03652,13.771594 Z M 284.29954,10.241171 V 10.11487 C 284.29954,9.9224104 284.15519,9.8261808 284.01085,9.8261808 283.87252,9.8261808 283.72817,9.9224104 283.72817,10.11487 V 10.241171 C 283.72817,10.427616 283.87252,10.523845 284.01085,10.523845 284.15519,10.523845 284.29954,10.427616 284.29954,10.241171 Z M 285.35205,10.241171 V 10.11487 C 285.35205,9.9224104 285.2077,9.8261808 285.06937,9.8261808 284.92503,9.8261808 284.78068,9.9224104 284.78068,10.11487 V 10.241171 C 284.78068,10.427616 284.92503,10.523845 285.06937,10.523845 285.2077,10.523845 285.35205,10.427616 285.35205,10.241171 Z M 285.56255,13.079944 V 12.057505 C 285.56255,11.510199 285.11147,11.08318 284.56417,11.08318 H 284.51605 C 283.96875,11.08318 283.51767,11.510199 283.51767,12.057505 V 13.079944 C 283.51767,13.62725 283.96273,14.054269 284.51605,14.054269 H 284.56417 C 285.11749,14.054269 285.56255,13.62725 285.56255,13.079944 Z M 284.98517,13.079944 C 284.98517,13.308489 284.79873,13.482906 284.56417,13.482906 H 284.51605 C 284.28149,13.482906 284.09505,13.308489 284.09505,13.079944 V 12.057505 C 284.09505,11.828959 284.28149,11.654543 284.51605,11.654543 H 284.56417 C 284.79873,11.654543 284.98517,11.828959 284.98517,12.057505 Z M 288.31111,13.76558 V 12.075548 C 288.31111,11.522228 287.90814,11.08318 287.31874,11.08318 H 287.26461 C 287.13831,11.08318 287.01201,11.08318 286.8436,11.239553 286.77143,11.113252 286.66317,11.08318 286.55492,11.08318 286.41057,11.08318 286.26623,11.17941 286.26623,11.371869 V 13.76558 C 286.26623,13.958039 286.41057,14.054269 286.55492,14.054269 286.69926,14.054269 286.8436,13.958039 286.8436,13.76558 V 12.075548 C 286.8436,11.840988 287.03005,11.654543 287.26461,11.654543 H 287.31874 C 287.5533,11.654543 287.73373,11.840988 287.73373,12.075548 V 13.76558 C 287.73373,13.958039 287.88409,14.054269 288.02242,14.054269 288.16676,14.054269 288.31111,13.958039 288.31111,13.76558 Z M 289.65231,10.241171 V 10.11487 C 289.65231,9.9224104 289.50796,9.8261808 289.36362,9.8261808 289.21927,9.8261808 289.08094,9.9224104 289.08094,10.11487 V 10.241171 C 289.08094,10.427616 289.21927,10.523845 289.36362,10.523845 289.50796,10.523845 289.65231,10.427616 289.65231,10.241171 Z M 289.65231,13.76558 V 11.371869 C 289.65231,11.17941 289.50195,11.08318 289.36362,11.08318 289.21927,11.08318 289.07493,11.17941 289.07493,11.371869 V 13.76558 C 289.07493,13.958039 289.21927,14.054269 289.36362,14.054269 289.50195,14.054269 289.65231,13.958039 289.65231,13.76558 Z M 292.28058,13.729494 C 292.28058,13.58515 292.19036,13.44682 291.9979,13.44682 H 291.07771 L 292.15428,11.708672 C 292.23246,11.576357 292.24449,11.510199 292.24449,11.401941 292.24449,11.251582 292.09413,11.119266 291.94377,11.119266 H 290.60257 C 290.41011,11.119266 290.31388,11.257596 290.31388,11.401941 290.31388,11.546285 290.41011,11.690629 290.60257,11.690629 H 291.48067 L 290.362,13.464863 C 290.30186,13.561092 290.28983,13.62725 290.28983,13.699422 290.28983,13.891881 290.44019,14.018183 290.59054,14.018183 H 291.9979 C 292.19036,14.018183 292.28058,13.873838 292.28058,13.729494 Z"
       id="text374"
       aria-label="Köniz" />
    <path
       style="font-weight:bold;font-stretch:condensed;font-size:6.01435px;line-height:125%;font-family:'Gravur Condensed';-inkscape-font-specification:'Gravur Condensed,  Bold Condensed';text-align:center;letter-spacing:0px;word-spacing:0px;text-anchor:middle;stroke-width:0.420461px"
       d="M 5.4810438,13.76558 V 10.11487 C 5.4810438,9.9224104 5.3306851,9.8261808 5.1863407,9.8261808 5.0419963,9.8261808 4.9036663,9.9224104 4.9036663,10.11487 V 12.628868 L 3.7549254,10.036683 C 3.6647102,9.8261808 3.5203658,9.8261808 3.4481936,9.8261808 H 3.3820357 C 3.1895765,9.8261808 3.0753039,9.9705252 3.0753039,10.126898 V 13.76558 C 3.0753039,13.958039 3.2256626,14.054269 3.370007,14.054269 3.5143514,14.054269 3.6526815,13.958039 3.6526815,13.76558 V 11.215496 L 4.8014223,13.807681 C 4.8976519,14.030211 5.0480107,14.054269 5.1261972,14.054269 H 5.192355 C 5.3487281,14.054269 5.4810438,13.915939 5.4810438,13.76558 Z M 6.9485456,10.241171 V 10.11487 C 6.9485456,9.9224104 6.8042012,9.8261808 6.6598568,9.8261808 6.5155124,9.8261808 6.3771823,9.9224104 6.3771823,10.11487 V 10.241171 C 6.3771823,10.427616 6.5155124,10.523845 6.6598568,10.523845 6.8042012,10.523845 6.9485456,10.427616 6.9485456,10.241171 Z M 6.9485456,13.76558 V 11.371869 C 6.9485456,11.17941 6.7981868,11.08318 6.6598568,11.08318 6.5155124,11.08318 6.371168,11.17941 6.371168,11.371869 V 13.76558 C 6.371168,13.958039 6.5155124,14.054269 6.6598568,14.054269 6.7981868,14.054269 6.9485456,13.958039 6.9485456,13.76558 Z M 9.7572453,12.574739 V 12.075548 C 9.7572453,11.49817 9.3181978,11.08318 8.7588632,11.08318 H 8.7107484 C 8.169457,11.08318 7.7123664,11.510199 7.7123664,12.057505 V 13.079944 C 7.7123664,13.62725 8.1574283,14.054269 8.7107484,14.054269 H 8.7588632 C 9.1979108,14.054269 9.4685565,13.843767 9.6610157,13.458848 9.6790588,13.410733 9.6910875,13.368633 9.6910875,13.326533 9.6910875,13.170159 9.5407287,13.067915 9.39037,13.067915 9.0716094,13.067915 9.1738534,13.482906 8.7588632,13.482906 H 8.7107484 C 8.4761888,13.482906 8.289744,13.308489 8.289744,13.079944 V 12.863428 H 9.4685565 C 9.6249296,12.863428 9.7572453,12.725098 9.7572453,12.574739 Z M 9.1798677,12.32815 H 8.289744 V 12.057505 C 8.289744,11.828959 8.4822032,11.654543 8.7167628,11.654543 H 8.7708919 C 8.9813942,11.654543 9.1798677,11.828959 9.1798677,12.075548 Z M 11.838207,13.061901 C 11.838207,13.278418 11.651762,13.482906 11.417203,13.482906 H 11.369088 C 11.134528,13.482906 10.948083,13.296461 10.948083,13.061901 V 12.075548 C 10.948083,11.840988 11.134528,11.654543 11.369088,11.654543 H 11.417203 C 11.651762,11.654543 11.838207,11.847002 11.838207,12.075548 Z M 12.415585,13.76558 V 10.11487 C 12.415585,9.9224104 12.27124,9.8261808 12.126896,9.8261808 11.982552,9.8261808 11.838207,9.9224104 11.838207,10.11487 V 11.239553 C 11.711906,11.12528 11.507418,11.08318 11.411188,11.08318 H 11.369088 C 10.821782,11.08318 10.370706,11.522228 10.370706,12.075548 V 13.061901 C 10.370706,13.609207 10.815768,14.054269 11.369088,14.054269 H 11.411188 C 11.507418,14.054269 11.711906,14.030211 11.838207,13.897896 11.874293,13.994125 11.958494,14.054269 12.126896,14.054269 12.27124,14.054269 12.415585,13.952025 12.415585,13.76558 Z M 15.248348,12.574739 V 12.075548 C 15.248348,11.49817 14.8093,11.08318 14.249965,11.08318 H 14.201851 C 13.660559,11.08318 13.203469,11.510199 13.203469,12.057505 V 13.079944 C 13.203469,13.62725 13.64853,14.054269 14.201851,14.054269 H 14.249965 C 14.689013,14.054269 14.959659,13.843767 15.152118,13.458848 15.170161,13.410733 15.18219,13.368633 15.18219,13.326533 15.18219,13.170159 15.031831,13.067915 14.881472,13.067915 14.562712,13.067915 14.664956,13.482906 14.249965,13.482906 H 14.201851 C 13.967291,13.482906 13.780846,13.308489 13.780846,13.079944 V 12.863428 H 14.959659 C 15.116032,12.863428 15.248348,12.725098 15.248348,12.574739 Z M 14.67097,12.32815 H 13.780846 V 12.057505 C 13.780846,11.828959 13.973305,11.654543 14.207865,11.654543 H 14.261994 C 14.472496,11.654543 14.67097,11.828959 14.67097,12.075548 Z M 17.503726,11.624471 C 17.503726,11.600414 17.497711,11.576357 17.491697,11.552299 17.431553,11.341797 17.245109,11.08318 16.757946,11.08318 16.673745,11.08318 16.529401,11.113252 16.463243,11.203467 16.415128,11.119266 16.30687,11.08318 16.174554,11.08318 16.024196,11.08318 15.885865,11.17941 15.885865,11.371869 V 13.753551 C 15.885865,13.952025 16.024196,14.054269 16.16854,14.054269 16.312884,14.054269 16.463243,13.952025 16.463243,13.753551 V 11.925189 C 16.463243,11.720701 16.601573,11.654543 16.769975,11.654543 17.09475,11.654543 16.932362,11.87106 17.196994,11.87106 17.335324,11.87106 17.503726,11.786859 17.503726,11.624471 Z M 19.975619,13.152116 C 19.975619,12.033447 18.472032,12.394308 18.472032,11.961275 V 11.901132 C 18.472032,11.768816 18.664491,11.654543 18.929122,11.654543 H 18.95318 C 19.338098,11.654543 19.380198,11.865045 19.608744,11.865045 19.765117,11.865045 19.885404,11.738744 19.885404,11.600414 19.885404,11.389912 19.488457,11.08318 18.95318,11.08318 H 18.929122 C 18.544204,11.08318 17.894654,11.293682 17.894654,11.883089 V 11.985332 C 17.894654,12.502567 18.417902,12.664954 18.832893,12.749155 19.079481,12.803284 19.398242,12.821327 19.398242,13.152116 19.398242,13.344576 19.265926,13.482906 18.929122,13.482906 H 18.826878 C 18.417902,13.482906 18.423917,13.025815 18.129214,13.025815 17.978855,13.025815 17.834511,13.140088 17.834511,13.302475 17.834511,13.344576 17.840525,13.386676 17.864582,13.434791 18.038998,13.813695 18.44196,14.054269 18.826878,14.054269 H 18.929122 C 19.374184,14.054269 19.975619,13.831738 19.975619,13.152116 Z M 22.579829,13.091973 C 22.579829,12.899514 22.435484,12.803284 22.29114,12.803284 22.146795,12.803284 22.002451,12.899514 22.002451,13.091973 22.002451,13.320518 21.816006,13.482906 21.581446,13.482906 H 21.533332 C 21.298772,13.482906 21.112327,13.308489 21.112327,13.079944 V 12.057505 C 21.112327,11.828959 21.298772,11.654543 21.533332,11.654543 H 21.581446 C 21.816006,11.654543 22.002451,11.816931 22.002451,12.045476 22.002451,12.237935 22.146795,12.334165 22.29114,12.334165 22.435484,12.334165 22.579829,12.237935 22.579829,12.045476 22.579829,11.49817 22.134767,11.08318 21.581446,11.08318 H 21.533332 C 20.986026,11.08318 20.53495,11.510199 20.53495,12.057505 V 13.079944 C 20.53495,13.62725 20.980011,14.054269 21.533332,14.054269 H 21.581446 C 22.134767,14.054269 22.579829,13.639279 22.579829,13.091973 Z M 25.334401,13.76558 V 12.069533 C 25.334401,11.528242 24.93144,11.08318 24.360076,11.08318 H 24.287904 C 24.197689,11.08318 23.993201,11.12528 23.8669,11.239553 V 10.11487 C 23.8669,9.9224104 23.722555,9.8261808 23.578211,9.8261808 23.433866,9.8261808 23.289522,9.9224104 23.289522,10.11487 V 13.76558 C 23.289522,13.958039 23.433866,14.054269 23.578211,14.054269 23.722555,14.054269 23.8669,13.958039 23.8669,13.76558 V 12.105619 C 23.8669,11.853017 24.029287,11.654543 24.311961,11.654543 H 24.330005 C 24.546521,11.654543 24.757023,11.792873 24.757023,12.069533 V 13.76558 C 24.757023,13.958039 24.901368,14.054269 25.045712,14.054269 25.190057,14.054269 25.334401,13.958039 25.334401,13.76558 Z M 28.016808,12.574739 V 12.075548 C 28.016808,11.49817 27.57776,11.08318 27.018426,11.08318 H 26.970311 C 26.429019,11.08318 25.971929,11.510199 25.971929,12.057505 V 13.079944 C 25.971929,13.62725 26.416991,14.054269 26.970311,14.054269 H 27.018426 C 27.457473,14.054269 27.728119,13.843767 27.920578,13.458848 27.938621,13.410733 27.95065,13.368633 27.95065,13.326533 27.95065,13.170159 27.800291,13.067915 27.649932,13.067915 27.331172,13.067915 27.433416,13.482906 27.018426,13.482906 H 26.970311 C 26.735751,13.482906 26.549306,13.308489 26.549306,13.079944 V 12.863428 H 27.728119 C 27.884492,12.863428 28.016808,12.725098 28.016808,12.574739 Z M 27.43943,12.32815 H 26.549306 V 12.057505 C 26.549306,11.828959 26.741766,11.654543 26.976325,11.654543 H 27.030454 C 27.240957,11.654543 27.43943,11.828959 27.43943,12.075548 Z M 30.272185,11.624471 C 30.272185,11.600414 30.266171,11.576357 30.260156,11.552299 30.200013,11.341797 30.013568,11.08318 29.526406,11.08318 29.442205,11.08318 29.29786,11.113252 29.231702,11.203467 29.183588,11.119266 29.075329,11.08318 28.943014,11.08318 28.792655,11.08318 28.654325,11.17941 28.654325,11.371869 V 13.753551 C 28.654325,13.952025 28.792655,14.054269 28.936999,14.054269 29.081344,14.054269 29.231702,13.952025 29.231702,13.753551 V 11.925189 C 29.231702,11.720701 29.370032,11.654543 29.538434,11.654543 29.863209,11.654543 29.700822,11.87106 29.965453,11.87106 30.103783,11.87106 30.272185,11.786859 30.272185,11.624471 Z M 31.914099,13.747537 C 31.914099,13.579135 31.787798,13.464863 31.62541,13.464863 31.48708,13.464863 31.384836,13.35059 31.384836,13.21226 V 10.108855 C 31.384836,9.9464678 31.258535,9.8261808 31.096148,9.8261808 30.927746,9.8261808 30.807459,9.9464678 30.807459,10.11487 V 13.21226 C 30.807459,13.735508 31.102162,14.036226 31.62541,14.036226 31.793812,14.036226 31.914099,13.915939 31.914099,13.747537 Z M 33.129004,10.241171 V 10.11487 C 33.129004,9.9224104 32.984659,9.8261808 32.840315,9.8261808 32.69597,9.8261808 32.55764,9.9224104 32.55764,10.11487 V 10.241171 C 32.55764,10.427616 32.69597,10.523845 32.840315,10.523845 32.984659,10.523845 33.129004,10.427616 33.129004,10.241171 Z M 33.129004,13.76558 V 11.371869 C 33.129004,11.17941 32.978645,11.08318 32.840315,11.08318 32.69597,11.08318 32.551626,11.17941 32.551626,11.371869 V 13.76558 C 32.551626,13.958039 32.69597,14.054269 32.840315,14.054269 32.978645,14.054269 33.129004,13.958039 33.129004,13.76558 Z"
       id="text375"
       aria-label="Niederscherli" />
    <path
       style="font-stretch:condensed;font-size:4.00571px;line-height:125%;font-family:'Gravur Condensed';-inkscape-font-specification:'Gravur Condensed,  Condensed';text-align:center;letter-spacing:0px;word-spacing:0px;text-anchor:middle;stroke-width:0.280038px"
       d="M 45.788158,15.955226 C 45.788158,16.143494 45.631935,16.295711 45.443667,16.295711 H 45.407615 C 45.203324,16.295711 45.06713,16.187557 45.06713,16.015311 V 15.983266 C 45.079147,15.702866 45.491735,15.718889 45.788158,15.638775 Z M 46.324923,16.443922 C 46.324923,16.379831 46.284866,16.31574 46.19674,16.299717 46.124637,16.2877 46.092592,16.239631 46.092592,16.167528 V 15.238204 C 46.092592,14.893713 45.820203,14.621324 45.463695,14.621324 H 45.435655 C 45.223352,14.621324 44.966987,14.705444 44.838804,14.993855 44.826787,15.01789 44.822781,15.041924 44.822781,15.065958 44.822781,15.150078 44.89889,15.206158 44.974998,15.206158 45.027073,15.206158 45.079147,15.182124 45.111193,15.126044 45.187301,14.993855 45.271421,14.925758 45.435655,14.925758 H 45.463695 C 45.639946,14.925758 45.788158,15.013884 45.788158,15.250221 45.788158,15.270249 45.788158,15.302295 45.77614,15.318318 45.680003,15.454512 44.790736,15.342352 44.762696,15.975254 V 16.023323 C 44.762696,16.395854 45.083153,16.600145 45.407615,16.600145 H 45.443667 C 45.607901,16.600145 45.760118,16.540059 45.876283,16.439917 45.928357,16.516025 46.012477,16.576111 46.148672,16.596139 46.156683,16.600145 46.1687,16.600145 46.176712,16.600145 46.272849,16.600145 46.324923,16.524037 46.324923,16.443922 Z"
       id="text375-23"
       aria-label="a" />
    <path
       style="font-stretch:condensed;font-size:14.5239px;line-height:125%;font-family:'Gravur Condensed';-inkscape-font-specification:'Gravur Condensed,  Condensed';text-align:center;letter-spacing:0px;word-spacing:0px;text-anchor:middle;stroke-width:0.44799px"
       d="M 51.487649,7.4646637 C 51.487649,7.4390336 51.481243,7.4133991 51.474832,7.3877691 L 50.225245,3.3762764 C 50.186798,3.26093 50.065045,3.1968482 49.930471,3.1968482 49.802312,3.1968482 49.680555,3.26093 49.642107,3.3762764 L 48.392521,7.3877691 C 48.38611,7.4133991 48.379704,7.4390336 48.379704,7.4646637 48.379704,7.5928273 48.482233,7.7017672 48.62962,7.7017672 48.725743,7.7017672 48.815459,7.6505027 48.853906,7.5287455 L 49.142274,6.6059746 H 50.725083 L 51.00704,7.5287455 C 51.045487,7.6505027 51.14161,7.7017672 51.237733,7.7017672 51.38512,7.7017672 51.487649,7.5928273 51.487649,7.4646637 Z M 50.571285,6.1189591 H 49.296068 L 49.930471,4.0683546 Z"
       id="text375-2"
       aria-label="A" />
    <path
       id="path123-0"
       style="fill:#000000;fill-opacity:1;stroke:none;stroke-width:0.220606;stroke-linecap:square;stroke-miterlimit:100"
       d="M 54.024053,8.6651661 55.133064,9.7741731 V 11.333262 L 54.024053,12.442269 H 45.843299 L 44.734292,11.333262 V 9.7741731 L 45.843299,8.6651661 Z M 52.935796,9.5213183 A 1.0323986,1.0323986 0 0 0 51.903397,10.553717 1.0323986,1.0323986 0 0 0 52.935796,11.586117 1.0323986,1.0323986 0 0 0 53.968195,10.553717 1.0323986,1.0323986 0 0 0 52.935796,9.5213183 Z M 49.933676,9.5213183 A 1.0323986,1.0323986 0 0 0 48.901277,10.553717 1.0323986,1.0323986 0 0 0 49.933676,11.586117 1.0323986,1.0323986 0 0 0 50.966075,10.553717 1.0323986,1.0323986 0 0 0 49.933676,9.5213183 Z M 46.93156,9.5213183 A 1.0323986,1.0323986 0 0 0 45.899161,10.553717 1.0323986,1.0323986 0 0 0 46.93156,11.586117 1.0323986,1.0323986 0 0 0 47.963954,10.553717 1.0323986,1.0323986 0 0 0 46.93156,9.5213183 Z" />
    <path
       style="fill-rule:evenodd"
       d="M 41.974609,8.6660156 V 12.441406 H 42.416016 V 8.6660156 Z"
       id="path377" />
    <path
       style="fill-rule:evenodd"
       d="M 41.224609,8.6660156 V 12.441406 H 41.666016 V 8.6660156 Z"
       id="path378" />
    <path
       style="fill-rule:evenodd"
       d="M 42.195312,9.9589844 V 10.398438 H 45.322266 V 9.9589844 Z"
       id="path380" />
    <path
       style="fill-rule:evenodd"
       d="M 42.195312,10.708984 V 11.148438 H 45.322266 V 10.708984 Z"
       id="path381" />
    <path
       style="font-stretch:condensed;font-size:14.5239px;line-height:125%;font-family:'Gravur Condensed';-inkscape-font-specification:'Gravur Condensed,  Condensed';text-align:center;letter-spacing:0px;word-spacing:0px;text-anchor:middle;stroke-width:0.44799px"
       d="M 71.725012,31.109265 V 31.05159 C 71.725012,30.53894 71.44305,30.192901 71.17391,30.045513 71.44305,29.89172 71.673743,29.545681 71.673743,29.071478 V 29.065067 C 71.673743,28.398623 71.186728,27.898786 70.507462,27.898786 H 69.52061 C 69.39245,27.898786 69.277104,28.014133 69.277104,28.142296 V 32.083301 C 69.277104,32.211464 69.39245,32.326811 69.52061,32.326811 H 70.507462 C 71.180317,32.326811 71.725012,31.78212 71.725012,31.109265 Z M 71.186728,29.071478 C 71.186728,29.494412 70.891953,29.802003 70.507462,29.802003 H 69.76412 V 28.385806 H 70.507462 C 70.90477,28.385806 71.186728,28.654946 71.186728,29.065067 Z M 71.237992,31.109265 C 71.237992,31.512975 70.911177,31.839791 70.507462,31.839791 H 69.76412 V 30.289023 H 70.507462 C 70.89836,30.289023 71.237992,30.635062 71.237992,31.05159 Z"
       id="text375-2-6"
       aria-label="B" />
    <path
       id="path123-0-3"
       style="fill:#000000;fill-opacity:1;stroke:none;stroke-width:0.220606;stroke-linecap:square;stroke-miterlimit:100"
       d="M 66.106773,26.896954 64.997762,25.787947 V 24.228858 L 66.106773,23.119851 H 74.287527 L 75.396534,24.228858 V 25.787947 L 74.287527,26.896954 Z M 67.19503,26.040802 A 1.0323986,1.0323986 0 0 0 68.227429,25.008403 1.0323986,1.0323986 0 0 0 67.19503,23.976003 1.0323986,1.0323986 0 0 0 66.162631,25.008403 1.0323986,1.0323986 0 0 0 67.19503,26.040802 Z M 70.19715,26.040802 A 1.0323986,1.0323986 0 0 0 71.229549,25.008403 1.0323986,1.0323986 0 0 0 70.19715,23.976003 1.0323986,1.0323986 0 0 0 69.164751,25.008403 1.0323986,1.0323986 0 0 0 70.19715,26.040802 Z M 73.199266,26.040802 A 1.0323986,1.0323986 0 0 0 74.231665,25.008403 1.0323986,1.0323986 0 0 0 73.199266,23.976003 1.0323986,1.0323986 0 0 0 72.166872,25.008403 1.0323986,1.0323986 0 0 0 73.199266,26.040802 Z" />
    <path
       style="fill-rule:evenodd"
       d="M 77.714844,23.119141 V 26.896484 H 78.15625 V 23.119141 Z"
       id="path377-4" />
    <path
       style="fill-rule:evenodd"
       d="M 78.464844,23.119141 V 26.896484 H 78.90625 V 23.119141 Z"
       id="path378-3" />
    <path
       style="fill-rule:evenodd"
       d="M 74.808594,25.162109 V 25.603516 H 77.935547 V 25.162109 Z"
       id="path380-1" />
    <path
       style="fill-rule:evenodd"
       d="M 74.808594,24.412109 V 24.853516 H 77.935547 V 24.412109 Z"
       id="path381-3" />
    <path
       style="fill-rule:evenodd;stroke-linecap:round"
       d="M 9.9902344,17.714844 A 0.44121301,0.44121301 0 0 0 9.5488281,18.15625 0.44121301,0.44121301 0 0 0 9.9902344,18.597656 H 13.402344 A 0.44121301,0.44121301 0 0 0 13.841797,18.15625 0.44121301,0.44121301 0 0 0 13.402344,17.714844 Z"
       id="path384" />
    <path
       style="fill-rule:evenodd;stroke-linecap:round"
       d="M 4.5839844,17.714844 A 0.44121301,0.44121301 0 0 0 4.1425781,18.15625 0.44121301,0.44121301 0 0 0 4.5839844,18.597656 H 7.9941406 A 0.44121301,0.44121301 0 0 0 8.4355469,18.15625 0.44121301,0.44121301 0 0 0 7.9941406,17.714844 Z"
       id="path385" />
    <path
       style="fill-rule:evenodd;stroke-linecap:round"
       d="M 288.96094,17.714844 A 0.44121301,0.44121301 0 0 0 288.51953,18.15625 0.44121301,0.44121301 0 0 0 288.96094,18.597656 H 292.37305 A 0.44121301,0.44121301 0 0 0 292.8125,18.15625 0.44121301,0.44121301 0 0 0 292.37305,17.714844 Z"
       id="path384-8" />
    <path
       style="fill-rule:evenodd;stroke-linecap:round"
       d="M 283.55469,17.714844 A 0.44121301,0.44121301 0 0 0 283.11328,18.15625 0.44121301,0.44121301 0 0 0 283.55469,18.597656 H 286.96484 A 0.44121301,0.44121301 0 0 0 287.40625,18.15625 0.44121301,0.44121301 0 0 0 286.96484,17.714844 Z"
       id="path385-2" />
    <path
       style="fill-rule:evenodd;stroke-linecap:round"
       d="M 37.955078,15.824219 A 0.33091,0.33091 0 0 0 37.625,16.154297 V 20.158203 A 0.33091,0.33091 0 0 0 37.955078,20.488281 0.33091,0.33091 0 0 0 38.287109,20.158203 V 16.154297 A 0.33091,0.33091 0 0 0 37.955078,15.824219 Z"
       id="path386" />
    <path
       style="fill-rule:evenodd;stroke-linecap:round"
       d="M 53.130859,15.824219 A 0.33091,0.33091 0 0 0 52.800781,16.154297 V 20.158203 A 0.33091,0.33091 0 0 0 53.130859,20.488281 0.33091,0.33091 0 0 0 53.462891,20.158203 V 16.154297 A 0.33091,0.33091 0 0 0 53.130859,15.824219 Z"
       id="path387" />
    <path
       style="fill-rule:evenodd;stroke-linecap:round"
       d="M 64.523437,15.824219 A 0.33091,0.33091 0 0 0 64.191406,16.154297 V 20.158203 A 0.33091,0.33091 0 0 0 64.523437,20.488281 0.33091,0.33091 0 0 0 64.853516,20.158203 V 16.154297 A 0.33091,0.33091 0 0 0 64.523437,15.824219 Z"
       id="path388" />
    <path
       style="fill-rule:evenodd;stroke-linecap:round"
       d="M 94.841797,15.824219 A 0.33091,0.33091 0 0 0 94.509766,16.154297 V 20.158203 A 0.33091,0.33091 0 0 0 94.841797,20.488281 0.33091,0.33091 0 0 0 95.171875,20.158203 V 16.154297 A 0.33091,0.33091 0 0 0 94.841797,15.824219 Z"
       id="path389" />
    <path
       style="fill-rule:evenodd;stroke-linecap:round"
       d="M 107.30078,34.724609 A 0.33091,0.33091 0 0 0 106.9707,35.056641 V 39.058594 A 0.33091,0.33091 0 0 0 107.30078,39.390625 0.33091,0.33091 0 0 0 107.63281,39.058594 V 35.056641 A 0.33091,0.33091 0 0 0 107.30078,34.724609 Z"
       id="path389-4" />
    <path
       style="font-stretch:condensed;font-size:4.00571px;line-height:125%;font-family:'Gravur Condensed';-inkscape-font-specification:'Gravur Condensed,  Condensed';text-align:center;letter-spacing:0px;word-spacing:0px;text-anchor:middle;stroke-width:0.280038px"
       d="M 58.096391,15.955226 C 58.096391,16.143494 57.940168,16.295711 57.7519,16.295711 H 57.715848 C 57.511557,16.295711 57.375363,16.187557 57.375363,16.015311 V 15.983266 C 57.38738,15.702866 57.799968,15.718889 58.096391,15.638775 Z M 58.633156,16.443922 C 58.633156,16.379831 58.593099,16.31574 58.504973,16.299717 58.432871,16.2877 58.400825,16.239631 58.400825,16.167528 V 15.238204 C 58.400825,14.893713 58.128437,14.621324 57.771928,14.621324 H 57.743888 C 57.531586,14.621324 57.27522,14.705444 57.147038,14.993855 57.13502,15.01789 57.131015,15.041924 57.131015,15.065958 57.131015,15.150078 57.207123,15.206158 57.283232,15.206158 57.335306,15.206158 57.38738,15.182124 57.419426,15.126044 57.495534,14.993855 57.579654,14.925758 57.743888,14.925758 H 57.771928 C 57.94818,14.925758 58.096391,15.013884 58.096391,15.250221 58.096391,15.270249 58.096391,15.302295 58.084374,15.318318 57.988237,15.454512 57.098969,15.342352 57.070929,15.975254 V 16.023323 C 57.070929,16.395854 57.391386,16.600145 57.715848,16.600145 H 57.7519 C 57.916134,16.600145 58.068351,16.540059 58.184517,16.439917 58.236591,16.516025 58.320711,16.576111 58.456905,16.596139 58.464916,16.600145 58.476933,16.600145 58.484945,16.600145 58.581082,16.600145 58.633156,16.524037 58.633156,16.443922 Z M 60.463767,15.955226 V 15.266244 C 60.463767,14.909735 60.175356,14.621324 59.814842,14.621324 H 59.786802 C 59.646602,14.621324 59.506402,14.669393 59.438305,14.753513 V 13.936348 C 59.438305,13.836205 59.362197,13.784131 59.286088,13.784131 59.20998,13.784131 59.133871,13.836205 59.133871,13.936348 V 16.45594 C 59.133871,16.552077 59.20998,16.600145 59.286088,16.600145 59.354185,16.600145 59.422283,16.560088 59.4343,16.479974 59.49038,16.536054 59.606545,16.600145 59.778791,16.600145 H 59.814842 C 60.17135,16.600145 60.463767,16.311734 60.463767,15.955226 Z M 60.159333,15.955226 C 60.159333,16.143494 60.007116,16.295711 59.814842,16.295711 H 59.778791 C 59.598534,16.295711 59.438305,16.17554 59.438305,15.97926 V 15.234198 C 59.438305,15.049935 59.598534,14.925758 59.778791,14.925758 H 59.814842 C 60.007116,14.925758 60.159333,15.077975 60.159333,15.266244 Z"
       id="text389"
       aria-label="ab" />
    <path
       style="font-stretch:condensed;font-size:4.00571px;line-height:125%;font-family:'Gravur Condensed';-inkscape-font-specification:'Gravur Condensed,  Condensed';text-align:center;letter-spacing:0px;word-spacing:0px;text-anchor:middle;stroke-width:0.280038px"
       d="M 219.03996,35.417456 V 32.885848 C 219.03996,32.805733 219.00791,32.753659 218.9278,32.753659 H 218.79961 C 218.73552,32.753659 218.69547,32.777693 218.67544,32.809739 L 218.29089,33.326476 C 218.16671,33.49071 218.42308,33.666961 218.53924,33.502727 L 218.73552,33.222327 V 35.417456 C 218.73552,35.517599 218.81163,35.569673 218.88774,35.569673 218.96385,35.569673 219.03996,35.517599 219.03996,35.417456 Z M 220.9627,35.417456 V 32.885848 C 220.9627,32.805733 220.93065,32.753659 220.85054,32.753659 H 220.72235 C 220.65826,32.753659 220.6182,32.777693 220.59818,32.809739 L 220.21363,33.326476 C 220.08945,33.49071 220.34582,33.666961 220.46198,33.502727 L 220.65826,33.222327 V 35.417456 C 220.65826,35.517599 220.73437,35.569673 220.81048,35.569673 220.88659,35.569673 220.9627,35.517599 220.9627,35.417456 Z"
       id="text389-4"
       aria-label="11" />
    <path
       style="font-weight:bold;font-stretch:condensed;font-size:4.00571px;line-height:125%;font-family:'Gravur Condensed';-inkscape-font-specification:'Gravur Condensed,  Bold Condensed';text-align:center;letter-spacing:0px;word-spacing:0px;text-anchor:middle;stroke-width:0.280038px"
       d="M 91.346458,22.446598 V 20.015132 C 91.346458,19.914989 91.290378,19.822858 91.190235,19.822858 H 91.038018 C 90.985944,19.822858 90.913841,19.826863 90.845744,19.918995 L 90.489236,20.403686 C 90.461196,20.443743 90.449179,20.4838 90.449179,20.519851 90.449179,20.624 90.549322,20.712125 90.65347,20.712125 90.70955,20.712125 90.76563,20.688091 90.805687,20.628005 L 90.96191,20.407691 V 22.446598 C 90.96191,22.574781 91.058047,22.638872 91.154184,22.638872 91.250321,22.638872 91.346458,22.574781 91.346458,22.446598 Z"
       id="text389-9"
       aria-label="1" />
    <path
       style="font-stretch:condensed;font-size:9.07885px;line-height:125%;font-family:'Gravur Condensed';-inkscape-font-specification:'Gravur Condensed,  Condensed';text-align:center;letter-spacing:0px;word-spacing:0px;text-anchor:middle;stroke-width:0.280038px"
       d="M 91.861585,42.246113 C 91.861585,42.170004 91.813515,42.093895 91.709367,42.093895 H 90.607798 V 41.120508 H 91.372889 C 91.473031,41.120508 91.525103,41.044399 91.525103,40.968289 91.525103,40.89218 91.473031,40.816075 91.372889,40.816075 H 90.607798 V 39.934818 H 91.709367 C 91.813515,39.934818 91.861585,39.858709 91.861585,39.782599 91.861585,39.70649 91.813515,39.630385 91.709367,39.630385 H 90.45558 C 90.375464,39.630385 90.303366,39.702488 90.303366,39.782599 V 42.246113 C 90.303366,42.326224 90.375464,42.398327 90.45558,42.398327 H 91.709367 C 91.813515,42.398327 91.861585,42.322218 91.861585,42.246113 Z M 93.580035,40.591754 C 93.580035,40.511638 93.511939,40.443541 93.419809,40.443541 93.363726,40.443541 93.303642,40.475587 93.279609,40.54769 L 92.859009,41.837528 92.43841,40.54769 C 92.414377,40.475587 92.358294,40.443541 92.29821,40.443541 92.20608,40.443541 92.141985,40.511638 92.141985,40.591754 92.141985,40.607778 92.145991,40.627805 92.149997,40.64383 L 92.694776,42.318212 C 92.718809,42.390315 92.790912,42.42236 92.842984,42.42236 H 92.879036 C 92.927106,42.42236 92.999209,42.386309 93.023242,42.318212 L 93.568021,40.64383 C 93.576029,40.627805 93.580035,40.607778 93.580035,40.591754 Z M 94.994049,42.270146 V 39.73854 C 94.994049,39.658424 94.962003,39.606348 94.881888,39.606348 H 94.753707 C 94.689616,39.606348 94.649558,39.630385 94.629527,39.662431 L 94.244979,40.179166 C 94.120804,40.343399 94.377167,40.51965 94.493334,40.355418 L 94.689616,40.075018 V 42.270146 C 94.689616,42.370288 94.765721,42.42236 94.84183,42.42236 94.917939,42.42236 94.994049,42.370288 94.994049,42.270146 Z"
       id="text375-23-0"
       aria-label="Ev1" />
    <path
       style="font-stretch:condensed;font-size:6.16445px;line-height:125%;font-family:'Gravur Condensed';-inkscape-font-specification:'Gravur Condensed,  Condensed';text-align:center;letter-spacing:0px;word-spacing:0px;text-anchor:middle;stroke-width:0.430954px"
       d="M 143.2153,15.428897 V 14.473408 C 143.2153,14.350119 143.10434,14.239158 142.98106,14.239158 H 142.09954 C 141.94543,14.239158 141.86529,14.356283 141.86529,14.473408 141.86529,14.590532 141.94543,14.707657 142.09954,14.707657 H 142.74681 V 15.428897 C 142.74681,15.817258 142.43242,16.131645 142.04406,16.131645 H 141.98241 C 141.59405,16.131645 141.27967,15.817258 141.27967,15.428897 V 13.431615 C 141.27967,13.04942 141.59405,12.735033 141.98241,12.735033 H 142.04406 C 142.44475,12.735033 142.679,13.000104 142.74681,13.339149 142.77146,13.474767 142.87626,13.536411 142.98106,13.536411 143.09818,13.536411 143.2153,13.456273 143.2153,13.308326 V 13.27134 C 143.13517,12.691881 142.64201,12.266534 142.04406,12.266534 H 141.98241 C 141.33515,12.266534 140.81117,12.784348 140.81117,13.43778 V 15.428897 C 140.81117,16.076165 141.33515,16.600143 141.98241,16.600143 H 142.04406 C 142.69133,16.600143 143.2153,16.076165 143.2153,15.428897 Z M 146.19274,16.328907 C 146.19274,16.211782 146.10644,16.094658 145.95233,16.094658 H 144.70094 L 146.00164,13.912443 C 146.13726,13.678193 146.16192,13.474767 146.16192,13.295998 V 13.252846 C 146.16192,12.698046 145.70575,12.266534 145.16328,12.266534 H 145.14478 C 144.60231,12.266534 144.16464,12.70421 144.16464,13.252846 V 13.320655 C 144.16464,13.474767 144.28792,13.554904 144.40505,13.554904 144.52217,13.554904 144.6393,13.474767 144.6393,13.320655 V 13.252846 C 144.6393,12.969282 144.86122,12.735033 145.15095,12.735033 H 145.16944 C 145.49616,12.735033 145.69342,12.981611 145.69342,13.277504 V 13.314491 C 145.69342,13.43778 145.69342,13.530247 145.57629,13.71518 L 144.17696,16.057671 C 144.07217,16.242605 144.09683,16.563156 144.36806,16.563156 H 145.95849 C 146.1126,16.563156 146.19274,16.446032 146.19274,16.328907 Z"
       id="text391"
       aria-label="G2" />
    <path
       style="fill-rule:evenodd;stroke-linecap:round"
       d="M 193.89648,15.824219 A 0.33091,0.33091 0 0 0 193.56641,16.154297 V 20.158203 A 0.33091,0.33091 0 0 0 193.89648,20.488281 0.33091,0.33091 0 0 0 194.22852,20.158203 V 16.154297 A 0.33091,0.33091 0 0 0 193.89648,15.824219 Z"
       id="path391" />
    <path
       style="fill-rule:evenodd;stroke-linecap:round"
       d="M 197.54883,34.724609 A 0.33091,0.33091 0 0 0 197.2168,35.056641 V 39.058594 A 0.33091,0.33091 0 0 0 197.54883,39.390625 0.33091,0.33091 0 0 0 197.87891,39.058594 V 35.056641 A 0.33091,0.33091 0 0 0 197.54883,34.724609 Z"
       id="path391-9" />
    <path
       style="fill-rule:evenodd;stroke-linecap:round"
       d="M 194.25586,25.957031 A 0.33091,0.33091 0 0 0 194.25586,26.425781 L 197.08789,29.255859 A 0.33091,0.33091 0 0 0 197.55469,29.255859 0.33091,0.33091 0 0 0 197.55469,28.789062 L 194.72461,25.957031 A 0.33091,0.33091 0 0 0 194.25586,25.957031 Z"
       id="path391-9-8" />
    <path
       style="font-weight:bold;font-stretch:condensed;font-size:4.00571px;line-height:125%;font-family:'Gravur Condensed';-inkscape-font-specification:'Gravur Condensed,  Bold Condensed';text-align:center;letter-spacing:0px;word-spacing:0px;text-anchor:middle;stroke-width:0.280038px"
       d="M 198.65337,21.965913 V 21.705541 C 198.65337,21.44517 198.58928,21.256902 198.46911,21.132725 198.57726,21.020565 198.65337,20.848319 198.65337,20.579937 V 20.487806 C 198.65337,20.047177 198.31289,19.822858 197.96839,19.822858 197.6239,19.822858 197.27941,20.023143 197.27941,20.439737 197.27941,20.56792 197.37555,20.636017 197.47169,20.636017 197.56782,20.636017 197.66396,20.56792 197.66396,20.439737 197.66396,20.267492 197.81618,20.2034 197.96839,20.2034 198.12061,20.2034 198.26882,20.299537 198.26882,20.487806 V 20.579937 C 198.26882,20.928434 198.08055,20.940451 197.87226,20.940451 197.73606,20.940451 197.66797,21.036588 197.66797,21.128719 197.66797,21.224856 197.73606,21.320993 197.87226,21.320993 198.14465,21.320993 198.26882,21.357045 198.26882,21.705541 V 21.965913 C 198.26882,22.122135 198.12862,22.258329 197.96839,22.258329 H 197.92834 C 197.77211,22.258329 197.62791,22.14617 197.62791,22.00597 197.62791,21.877787 197.53177,21.813696 197.43564,21.813696 197.3395,21.813696 197.24336,21.877787 197.24336,22.00597 197.24336,22.338444 197.52777,22.638872 197.92834,22.638872 H 197.96839 C 198.36095,22.638872 198.65337,22.338444 198.65337,21.965913 Z"
       id="text392"
       aria-label="3" />
    <path
       style="font-weight:bold;font-stretch:condensed;font-size:4.00571px;line-height:125%;font-family:'Gravur Condensed';-inkscape-font-specification:'Gravur Condensed,  Bold Condensed';text-align:center;letter-spacing:0px;word-spacing:0px;text-anchor:middle;stroke-width:0.280038px"
       d="M 194.39029,35.175306 C 194.39029,35.083175 194.3262,34.987038 194.19802,34.987038 H 193.40889 L 194.19802,33.697199 C 194.23407,33.637114 194.3262,33.460862 194.3262,33.296628 V 33.228531 C 194.3262,32.835972 194.01376,32.5756 193.64924,32.5756 H 193.6252 C 193.25668,32.5756 192.95224,32.856 192.95224,33.228531 V 33.256571 C 192.95224,33.384754 193.04838,33.452851 193.14452,33.452851 193.24065,33.452851 193.33679,33.384754 193.33679,33.256571 V 33.228531 C 193.33679,33.072309 193.46497,32.956143 193.6252,32.956143 H 193.64924 C 193.81347,32.956143 193.94165,33.076314 193.94165,33.228531 V 33.2766 C 193.94165,33.33268 193.93765,33.404782 193.88557,33.488902 L 192.94023,35.003061 C 192.91619,35.039112 192.90818,35.083175 192.90818,35.127238 192.90818,35.243403 192.98028,35.36758 193.10847,35.36758 H 194.19802 C 194.3262,35.36758 194.39029,35.271443 194.39029,35.175306 Z"
       id="text392-0"
       aria-label="2" />
    <path
       style="fill-rule:evenodd;stroke-linecap:round"
       d="M 174.84375,34.724609 A 0.33091,0.33091 0 0 0 174.51172,35.056641 V 39.058594 A 0.33091,0.33091 0 0 0 174.84375,39.390625 0.33091,0.33091 0 0 0 175.17383,39.058594 V 35.056641 A 0.33091,0.33091 0 0 0 174.84375,34.724609 Z"
       id="path392" />
    <path
       style="font-stretch:condensed;font-size:6.16445px;line-height:125%;font-family:'Gravur Condensed';-inkscape-font-specification:'Gravur Condensed,  Condensed';text-align:center;letter-spacing:0px;word-spacing:0px;text-anchor:middle;stroke-width:0.430954px"
       d="M 143.2153,34.223655 V 33.268165 C 143.2153,33.144876 143.10434,33.033916 142.98106,33.033916 H 142.09954 C 141.94543,33.033916 141.86529,33.151041 141.86529,33.268165 141.86529,33.38529 141.94543,33.502414 142.09954,33.502414 H 142.74681 V 34.223655 C 142.74681,34.612016 142.43242,34.926402 142.04406,34.926402 H 141.98241 C 141.59405,34.926402 141.27967,34.612016 141.27967,34.223655 V 32.226373 C 141.27967,31.844177 141.59405,31.52979 141.98241,31.52979 H 142.04406 C 142.44475,31.52979 142.679,31.794862 142.74681,32.133907 142.77146,32.269524 142.87626,32.331169 142.98106,32.331169 143.09818,32.331169 143.2153,32.251031 143.2153,32.103084 V 32.066098 C 143.13517,31.486639 142.64201,31.061292 142.04406,31.061292 H 141.98241 C 141.33515,31.061292 140.81117,31.579106 140.81117,32.232538 V 34.223655 C 140.81117,34.870922 141.33515,35.394901 141.98241,35.394901 H 142.04406 C 142.69133,35.394901 143.2153,34.870922 143.2153,34.223655 Z M 145.60712,35.160652 V 31.264719 C 145.60712,31.14143 145.5578,31.061292 145.43451,31.061292 H 145.23725 C 145.13862,31.061292 145.07697,31.098279 145.04615,31.147595 L 144.45436,31.942809 C 144.26327,32.195551 144.65779,32.466787 144.83656,32.214044 L 145.13862,31.782533 V 35.160652 C 145.13862,35.314763 145.25574,35.394901 145.37287,35.394901 145.48999,35.394901 145.60712,35.314763 145.60712,35.160652 Z"
       id="text393"
       aria-label="G1" />
    <path
       style="fill-rule:evenodd;stroke-linecap:round"
       d="M 229.70508,15.824219 A 0.33091,0.33091 0 0 0 229.375,16.154297 V 20.158203 A 0.33091,0.33091 0 0 0 229.70508,20.488281 0.33091,0.33091 0 0 0 230.03711,20.158203 V 16.154297 A 0.33091,0.33091 0 0 0 229.70508,15.824219 Z"
       id="path393" />
    <path
       style="font-stretch:condensed;font-size:14.5239px;line-height:125%;font-family:'Gravur Condensed';-inkscape-font-specification:'Gravur Condensed,  Condensed';text-align:center;letter-spacing:0px;word-spacing:0px;text-anchor:middle;stroke-width:0.44799px"
       d="M 221.02555,6.66365 V 6.6187918 C 221.02555,6.4649981 220.91021,6.3816927 220.78845,6.3816927 220.68592,6.3816927 220.57698,6.4457701 220.54494,6.5931573 220.47445,6.9392008 220.18609,7.2147473 219.82082,7.2147473 H 219.75674 C 219.35303,7.2147473 219.02621,6.8879319 219.02621,6.4842218 V 4.4079828 C 219.02621,4.0106792 219.35303,3.6838637 219.75674,3.6838637 H 219.82082 C 220.18609,3.6838637 220.47445,3.9594146 220.54494,4.3054537 220.57698,4.4464346 220.67951,4.5169228 220.78845,4.5169228 220.91021,4.5169228 221.02555,4.4336173 221.02555,4.2798236 V 4.2413719 C 220.94225,3.6454164 220.436,3.1968482 219.82082,3.1968482 H 219.75674 C 219.08389,3.1968482 218.5392,3.7351327 218.5392,4.4079828 V 6.4842218 C 218.5392,7.1570763 219.08389,7.7017672 219.75674,7.7017672 H 219.82082 C 220.4296,7.7017672 220.93584,7.2467882 221.02555,6.66365 Z"
       id="text394"
       aria-label="C" />
    <path
       id="path394"
       style="fill:#000000;fill-opacity:1;stroke:none;stroke-width:0.220606;stroke-linecap:square;stroke-miterlimit:100"
       d="M 223.7606,8.6651661 224.86961,9.7741731 V 11.333262 L 223.7606,12.442269 H 215.57985 L 214.47084,11.333262 V 9.7741731 L 215.57985,8.6651661 Z M 222.67235,9.5213183 A 1.0323986,1.0323986 0 0 0 221.63995,10.553717 1.0323986,1.0323986 0 0 0 222.67235,11.586117 1.0323986,1.0323986 0 0 0 223.70475,10.553717 1.0323986,1.0323986 0 0 0 222.67235,9.5213183 Z M 219.67023,9.5213183 A 1.0323986,1.0323986 0 0 0 218.63783,10.553717 1.0323986,1.0323986 0 0 0 219.67023,11.586117 1.0323986,1.0323986 0 0 0 220.70262,10.553717 1.0323986,1.0323986 0 0 0 219.67023,9.5213183 Z M 216.66811,9.5213183 A 1.0323986,1.0323986 0 0 0 215.63571,10.553717 1.0323986,1.0323986 0 0 0 216.66811,11.586117 1.0323986,1.0323986 0 0 0 217.7005,10.553717 1.0323986,1.0323986 0 0 0 216.66811,9.5213183 Z" />
    <path
       style="fill-rule:evenodd"
       d="M 211.71094,8.6660156 V 12.441406 H 212.15234 V 8.6660156 Z"
       id="path395" />
    <path
       style="fill-rule:evenodd"
       d="M 210.96094,8.6660156 V 12.441406 H 211.40234 V 8.6660156 Z"
       id="path396" />
    <path
       style="fill-rule:evenodd"
       d="M 211.93164,9.9589844 V 10.398438 H 215.06055 V 9.9589844 Z"
       id="path397" />
    <path
       style="fill-rule:evenodd"
       d="M 211.93164,10.708984 V 11.148438 H 215.06055 V 10.708984 Z"
       id="path398" />
    <path
       style="font-stretch:condensed;font-size:14.5239px;line-height:125%;font-family:'Gravur Condensed';-inkscape-font-specification:'Gravur Condensed,  Condensed';text-align:center;letter-spacing:0px;word-spacing:0px;text-anchor:middle;stroke-width:0.44799px"
       d="M 263.3826,31.109265 V 29.109925 C 263.3826,28.443477 262.84432,27.898786 262.17146,27.898786 H 261.13335 C 261.00518,27.898786 260.88984,28.014133 260.88984,28.142296 V 32.083301 C 260.88984,32.211464 261.00518,32.326811 261.13335,32.326811 H 262.17146 C 262.84432,32.326811 263.3826,31.78212 263.3826,31.109265 Z M 262.90199,31.109265 C 262.90199,31.512975 262.57518,31.839791 262.17146,31.839791 H 261.37686 V 28.385806 H 262.17787 C 262.58158,28.385806 262.90199,28.712622 262.90199,29.116332 Z"
       id="text400"
       aria-label="D" />
    <path
       id="path400"
       style="fill:#000000;fill-opacity:1;stroke:none;stroke-width:0.220606;stroke-linecap:square;stroke-miterlimit:100"
       d="M 257.79001,26.896954 256.681,25.787947 V 24.228858 L 257.79001,23.119851 H 265.97076 L 267.07977,24.228858 V 25.787947 L 265.97076,26.896954 Z M 258.87826,26.040802 A 1.0323986,1.0323986 0 0 0 259.91066,25.008403 1.0323986,1.0323986 0 0 0 258.87826,23.976003 1.0323986,1.0323986 0 0 0 257.84586,25.008403 1.0323986,1.0323986 0 0 0 258.87826,26.040802 Z M 261.88038,26.040802 A 1.0323986,1.0323986 0 0 0 262.91278,25.008403 1.0323986,1.0323986 0 0 0 261.88038,23.976003 1.0323986,1.0323986 0 0 0 260.84799,25.008403 1.0323986,1.0323986 0 0 0 261.88038,26.040802 Z M 264.8825,26.040802 A 1.0323986,1.0323986 0 0 0 265.9149,25.008403 1.0323986,1.0323986 0 0 0 264.8825,23.976003 1.0323986,1.0323986 0 0 0 263.85011,25.008403 1.0323986,1.0323986 0 0 0 264.8825,26.040802 Z" />
    <path
       style="fill-rule:evenodd"
       d="M 269.39844,23.119141 V 26.896484 H 269.83984 V 23.119141 Z"
       id="path401" />
    <path
       style="fill-rule:evenodd"
       d="M 270.14844,23.119141 V 26.896484 H 270.58984 V 23.119141 Z"
       id="path402" />
    <path
       style="fill-rule:evenodd"
       d="M 266.49023,25.162109 V 25.603516 H 269.61914 V 25.162109 Z"
       id="path403" />
    <path
       style="fill-rule:evenodd"
       d="M 266.49023,24.412109 V 24.853516 H 269.61914 V 24.412109 Z"
       id="path404" />
    <path
       style="fill-rule:evenodd;stroke-linecap:round"
       d="M 241.73047,34.724609 A 0.33091,0.33091 0 0 0 241.39844,35.056641 V 39.058594 A 0.33091,0.33091 0 0 0 241.73047,39.390625 0.33091,0.33091 0 0 0 242.06055,39.058594 V 35.056641 A 0.33091,0.33091 0 0 0 241.73047,34.724609 Z"
       id="path406" />
    <path
       style="fill-rule:evenodd;stroke-linecap:round"
       d="M 254.45508,15.824219 A 0.33091,0.33091 0 0 0 254.12305,16.154297 V 20.158203 A 0.33091,0.33091 0 0 0 254.45508,20.488281 0.33091,0.33091 0 0 0 254.78516,20.158203 V 16.154297 A 0.33091,0.33091 0 0 0 254.45508,15.824219 Z"
       id="path407" />
    <path
       style="font-stretch:condensed;font-size:4.00571px;line-height:125%;font-family:'Gravur Condensed';-inkscape-font-specification:'Gravur Condensed,  Condensed';text-align:center;letter-spacing:0px;word-spacing:0px;text-anchor:middle;stroke-width:0.280038px"
       d="M 242.08893,15.955226 C 242.08893,15.851077 242.01282,15.799003 241.93671,15.799003 241.86461,15.799003 241.7885,15.851077 241.78449,15.955226 241.77648,16.143494 241.63228,16.295711 241.44401,16.295711 H 241.40796 C 241.21568,16.295711 241.06347,16.143494 241.06347,15.955226 V 15.266244 C 241.06347,15.077975 241.21568,14.925758 241.40395,14.925758 H 241.44401 C 241.63228,14.925758 241.77648,15.065958 241.78449,15.270249 241.7885,15.370392 241.86461,15.418461 241.93671,15.418461 242.01282,15.418461 242.08893,15.366386 242.08893,15.266244 242.08893,14.909735 241.79651,14.621324 241.44401,14.621324 H 241.40395 C 241.05145,14.621324 240.75903,14.90573 240.75903,15.266244 V 15.955226 C 240.75903,16.311734 241.04744,16.600145 241.40395,16.600145 H 241.44401 C 241.80052,16.600145 242.08893,16.311734 242.08893,15.955226 Z M 243.57104,15.97926 C 243.57104,16.17554 243.41081,16.295711 243.23056,16.295711 H 243.1905 C 243.00223,16.295711 242.85001,16.143494 242.85001,15.955226 V 15.266244 C 242.85001,15.077975 243.00223,14.925758 243.1945,14.925758 H 243.23056 C 243.41081,14.925758 243.57104,15.049935 243.57104,15.234198 Z M 243.87548,16.45594 V 13.936348 C 243.87548,13.836205 243.79937,13.784131 243.72326,13.784131 243.64715,13.784131 243.57104,13.836205 243.57104,13.936348 V 14.753513 C 243.50294,14.669393 243.36274,14.621324 243.22254,14.621324 H 243.1945 C 242.83399,14.621324 242.54558,14.909735 242.54558,15.266244 V 15.955226 C 242.54558,16.311734 242.83399,16.600145 243.1945,16.600145 H 243.23056 C 243.4028,16.600145 243.51897,16.536054 243.57505,16.479974 243.58306,16.560088 243.65516,16.600145 243.72326,16.600145 243.79937,16.600145 243.87548,16.552077 243.87548,16.45594 Z"
       id="text406"
       aria-label="cd" />
    <path
       style="fill-rule:evenodd;stroke-linecap:round"
       d="M 275.05859,15.824219 A 0.33091,0.33091 0 0 0 274.72852,16.154297 V 20.158203 A 0.33091,0.33091 0 0 0 275.05859,20.488281 0.33091,0.33091 0 0 0 275.38867,20.158203 V 16.154297 A 0.33091,0.33091 0 0 0 275.05859,15.824219 Z"
       id="path408" />
    <path
       style="fill-rule:evenodd;stroke-linecap:round"
       d="M 203.59375,19.294922 187.85156,35.037109 H 179.18359 A 0.44121301,0.44121301 0 0 0 178.74219,35.478516 0.44121301,0.44121301 0 0 0 179.18359,35.919922 H 188.2168 L 203.96094,20.177734 H 212.62695 A 0.44121301,0.44121301 0 0 0 213.06836,19.736328 0.44121301,0.44121301 0 0 0 212.62695,19.294922 Z"
       id="path374" />
    <path
       style="font-stretch:condensed;font-size:4.00571px;line-height:125%;font-family:'Gravur Condensed';-inkscape-font-specification:'Gravur Condensed,  Condensed';text-align:center;letter-spacing:0px;word-spacing:0px;text-anchor:middle;stroke-width:0.280038px"
       d="M 265.08938,15.97926 C 265.08938,16.17554 264.92916,16.295711 264.7489,16.295711 H 264.70884 C 264.52057,16.295711 264.36836,16.143494 264.36836,15.955226 V 15.266244 C 264.36836,15.077975 264.52057,14.925758 264.71285,14.925758 H 264.7489 C 264.92916,14.925758 265.08938,15.049935 265.08938,15.234198 Z M 265.39382,16.45594 V 13.936348 C 265.39382,13.836205 265.31771,13.784131 265.2416,13.784131 265.16549,13.784131 265.08938,13.836205 265.08938,13.936348 V 14.753513 C 265.02129,14.669393 264.88109,14.621324 264.74089,14.621324 H 264.71285 C 264.35233,14.621324 264.06392,14.909735 264.06392,15.266244 V 15.955226 C 264.06392,16.311734 264.35233,16.600145 264.71285,16.600145 H 264.7489 C 264.92114,16.600145 265.03731,16.536054 265.09339,16.479974 265.1014,16.560088 265.1735,16.600145 265.2416,16.600145 265.31771,16.600145 265.39382,16.552077 265.39382,16.45594 Z"
       id="text408"
       aria-label="d" />
  </g>
</svg>
