999
"DXF R12 Output" (www.mydxf.blogspot.com)
 0 
SECTION
 2 
HEADER
 9 
$ACADVER
 1 
AC1009
 9 
$EXTMIN
 10 
 0 
 20 
 0 
 9 
$EXTMAX
 10 
 8.5 
 20 
 11 
 0 
ENDSEC
 0 
SECTION
 2 
ENTITIES
0
LINE
8
Layer 1
10
6.481775
20
289.227348
11
6.481775
21
249.427193
0
LINE
8
Layer 1
10
6.481775
20
249.427193
11
46.281930
21
249.427193
0
LINE
8
Layer 1
10
46.281930
20
249.427193
11
46.281930
21
289.227348
0
LINE
8
Layer 1
10
46.281930
20
289.227348
11
6.481775
21
289.227348
0
LINE
8
Layer 1
10
6.481775
20
289.227348
11
6.481775
21
289.227348
0
LINE
8
Layer 1
10
24.932845
20
285.033289
11
27.830859
21
285.033289
0
LINE
8
Layer 1
10
27.830859
20
285.033289
11
27.830859
21
279.682711
0
LINE
8
Layer 1
10
27.830859
20
279.682711
11
24.932845
21
279.682711
0
LINE
8
Layer 1
10
24.932845
20
279.682711
11
24.932845
21
285.033289
0
LINE
8
Layer 1
10
24.932845
20
285.033289
11
24.932845
21
285.033289
0
LINE
8
Layer 1
10
26.262996
20
274.325932
11
27.675830
21
274.156950
0
LINE
8
Layer 1
10
27.675830
20
274.156950
11
28.597363
21
273.809673
0
LINE
8
Layer 1
10
28.597363
20
273.809673
11
29.425574
21
273.294133
0
LINE
8
Layer 1
10
29.425574
20
273.294133
11
30.137941
21
272.627612
0
LINE
8
Layer 1
10
30.137941
20
272.627612
11
30.711938
21
271.827393
0
LINE
8
Layer 1
10
30.711938
20
271.827393
11
31.117995
21
270.930208
0
LINE
8
Layer 1
10
31.117995
20
270.930208
11
31.339084
21
269.980031
0
LINE
8
Layer 1
10
31.339084
20
269.980031
11
31.371498
21
269.005010
0
LINE
8
Layer 1
10
31.371498
20
269.005010
11
31.211532
21
268.033293
0
LINE
8
Layer 1
10
31.211532
20
268.033293
11
30.864255
21
267.111760
0
LINE
8
Layer 1
10
30.864255
20
267.111760
11
30.348715
21
266.283549
0
LINE
8
Layer 1
10
30.348715
20
266.283549
11
29.682194
21
265.571182
0
LINE
8
Layer 1
10
29.682194
20
265.571182
11
28.881975
21
264.997184
0
LINE
8
Layer 1
10
28.881975
20
264.997184
11
27.984789
21
264.591128
0
LINE
8
Layer 1
10
27.984789
20
264.591128
11
27.034612
21
264.370039
0
LINE
8
Layer 1
10
27.034612
20
264.370039
11
26.059591
21
264.337625
0
LINE
8
Layer 1
10
26.059591
20
264.337625
11
25.087874
21
264.497591
0
LINE
8
Layer 1
10
25.087874
20
264.497591
11
24.166342
21
264.844868
0
LINE
8
Layer 1
10
24.166342
20
264.844868
11
23.338130
21
265.360408
0
LINE
8
Layer 1
10
23.338130
20
265.360408
11
22.625764
21
266.026929
0
LINE
8
Layer 1
10
22.625764
20
266.026929
11
22.051766
21
266.827148
0
LINE
8
Layer 1
10
22.051766
20
266.827148
11
21.645710
21
267.724334
0
LINE
8
Layer 1
10
21.645710
20
267.724334
11
21.424621
21
268.674510
0
LINE
8
Layer 1
10
21.424621
20
268.674510
11
21.392207
21
269.649531
0
LINE
8
Layer 1
10
21.392207
20
269.649531
11
21.552173
21
270.621248
0
LINE
8
Layer 1
10
21.552173
20
270.621248
11
22.218535
21
272.096940
0
LINE
8
Layer 1
10
22.218535
20
272.096940
11
23.291032
21
273.257589
0
LINE
8
Layer 1
10
23.291032
20
273.257589
11
24.671805
21
274.026239
0
LINE
8
Layer 1
10
24.671805
20
274.026239
11
26.262996
21
274.325932
0
LINE
8
Layer 1
10
26.262996
20
274.325932
11
26.262996
21
274.325932
0
LINE
8
Layer 1
10
11.481986
20
270.827437
11
20.481954
21
270.827437
0
LINE
8
Layer 1
10
20.481954
20
270.827437
11
20.481954
21
267.827104
0
LINE
8
Layer 1
10
20.481954
20
267.827104
11
11.481986
21
267.827104
0
LINE
8
Layer 1
10
11.481986
20
267.827104
11
11.481986
21
270.827437
0
LINE
8
Layer 1
10
11.481986
20
270.827437
11
11.481986
21
270.827437
0
LINE
8
Layer 1
10
32.281750
20
270.827437
11
41.282235
21
270.827437
0
LINE
8
Layer 1
10
41.282235
20
270.827437
11
41.282235
21
267.827104
0
LINE
8
Layer 1
10
41.282235
20
267.827104
11
32.281750
21
267.827104
0
LINE
8
Layer 1
10
32.281750
20
267.827104
11
32.281750
21
270.827437
0
LINE
8
Layer 1
10
32.281750
20
270.827437
11
32.281750
21
270.827437
0
LINE
8
Layer 1
10
24.932845
20
258.971830
11
27.830859
21
258.971830
0
LINE
8
Layer 1
10
27.830859
20
258.971830
11
27.830859
21
253.621252
0
LINE
8
Layer 1
10
27.830859
20
253.621252
11
24.932845
21
253.621252
0
LINE
8
Layer 1
10
24.932845
20
253.621252
11
24.932845
21
258.971830
0
LINE
8
Layer 1
10
24.932845
20
258.971830
11
24.932845
21
258.971830
 0 
ENDSEC
 0 
EOF