999
"DXF R12 Output" (www.mydxf.blogspot.com)
 0 
SECTION
 2 
HEADER
 9 
$ACADVER
 1 
AC1009
 9 
$EXTMIN
 10 
 0 
 20 
 0 
 9 
$EXTMAX
 10 
 8.5 
 20 
 11 
 0 
ENDSEC
 0 
SECTION
 2 
ENTITIES
0
LINE
8
Layer 1
10
6.481775
20
289.227348
11
6.481775
21
249.427193
0
LINE
8
Layer 1
10
6.481775
20
249.427193
11
46.281930
21
249.427193
0
LINE
8
Layer 1
10
46.281930
20
249.427193
11
46.281930
21
289.227348
0
LINE
8
Layer 1
10
46.281930
20
289.227348
11
6.481775
21
289.227348
0
LINE
8
Layer 1
10
6.481775
20
289.227348
11
6.481775
21
289.227348
0
LINE
8
Layer 1
10
9.029423
20
283.525370
11
43.734281
21
283.525370
0
LINE
8
Layer 1
10
43.734281
20
283.525370
11
43.734281
21
276.696330
0
LINE
8
Layer 1
10
43.734281
20
276.696330
11
9.029423
21
276.696330
0
LINE
8
Layer 1
10
9.029423
20
276.696330
11
9.029423
21
283.525370
0
LINE
8
Layer 1
10
9.029423
20
283.525370
11
9.029423
21
283.525370
0
LINE
8
Layer 1
10
9.029423
20
272.741532
11
43.734281
21
272.741532
0
LINE
8
Layer 1
10
43.734281
20
272.741532
11
43.734281
21
265.913009
0
LINE
8
Layer 1
10
43.734281
20
265.913009
11
9.029423
21
265.913009
0
LINE
8
Layer 1
10
9.029423
20
265.913009
11
9.029423
21
272.741532
0
LINE
8
Layer 1
10
9.029423
20
272.741532
11
9.029423
21
272.741532
0
LINE
8
Layer 1
10
9.029423
20
261.958211
11
43.734281
21
261.958211
0
LINE
8
Layer 1
10
43.734281
20
261.958211
11
43.734281
21
255.129171
0
LINE
8
Layer 1
10
43.734281
20
255.129171
11
9.029423
21
255.129171
0
LINE
8
Layer 1
10
9.029423
20
255.129171
11
9.029423
21
261.958211
0
LINE
8
Layer 1
10
9.029423
20
261.958211
11
9.029423
21
261.958211
 0 
ENDSEC
 0 
EOF