999
"DXF R12 Output" (www.mydxf.blogspot.com)
 0 
SECTION
 2 
HEADER
 9 
$ACADVER
 1 
AC1009
 9 
$EXTMIN
 10 
 0 
 20 
 0 
 9 
$EXTMAX
 10 
 8.5 
 20 
 11 
 0 
ENDSEC
 0 
SECTION
 2 
ENTITIES
0
LINE
8
Layer 1
10
6.481775
20
289.227348
11
6.481775
21
249.427193
0
LINE
8
Layer 1
10
6.481775
20
249.427193
11
46.281930
21
249.427193
0
LINE
8
Layer 1
10
46.281930
20
249.427193
11
46.281930
21
289.227348
0
LINE
8
Layer 1
10
46.281930
20
289.227348
11
6.481775
21
289.227348
0
LINE
8
Layer 1
10
6.481775
20
289.227348
11
6.481775
21
289.227348
0
LINE
8
Layer 1
10
11.481986
20
270.827437
11
20.481954
21
270.827437
0
LINE
8
Layer 1
10
20.481954
20
270.827437
11
20.481954
21
267.827104
0
LINE
8
Layer 1
10
20.481954
20
267.827104
11
11.481986
21
267.827104
0
LINE
8
Layer 1
10
11.481986
20
267.827104
11
11.481986
21
270.827437
0
LINE
8
Layer 1
10
11.481986
20
270.827437
11
11.481986
21
270.827437
0
LINE
8
Layer 1
10
32.281750
20
270.827437
11
41.282235
21
270.827437
0
LINE
8
Layer 1
10
41.282235
20
270.827437
11
41.282235
21
267.827104
0
LINE
8
Layer 1
10
41.282235
20
267.827104
11
32.281750
21
267.827104
0
LINE
8
Layer 1
10
32.281750
20
267.827104
11
32.281750
21
270.827437
0
LINE
8
Layer 1
10
32.281750
20
270.827437
11
32.281750
21
270.827437
 0 
ENDSEC
 0 
EOF