999
"DXF R12 Output" (www.mydxf.blogspot.com)
 0 
SECTION
 2 
HEADER
 9 
$ACADVER
 1 
AC1009
 9 
$EXTMIN
 10 
 0 
 20 
 0 
 9 
$EXTMAX
 10 
 8.5 
 20 
 11 
 0 
ENDSEC
 0 
SECTION
 2 
ENTITIES
0
LINE
8
Layer 1
10
8.031551
20
285.529899
11
8.031551
21
245.729744
0
LINE
8
Layer 1
10
8.031551
20
245.729744
11
47.831706
21
245.729744
0
LINE
8
Layer 1
10
47.831706
20
245.729744
11
47.831706
21
285.529899
0
LINE
8
Layer 1
10
47.831706
20
285.529899
11
8.031551
21
285.529899
0
LINE
8
Layer 1
10
8.031551
20
285.529899
11
8.031551
21
285.529899
0
LINE
8
Layer 1
10
19.669084
20
279.613464
11
21.718571
21
277.563977
0
LINE
8
Layer 1
10
21.718571
20
277.563977
11
15.487427
21
271.333350
0
LINE
8
Layer 1
10
15.487427
20
271.333350
11
13.438456
21
273.382837
0
LINE
8
Layer 1
10
13.438456
20
273.382837
11
19.669084
21
279.613464
0
LINE
8
Layer 1
10
19.669084
20
279.613464
11
19.669084
21
279.613464
0
LINE
8
Layer 1
10
13.017293
20
267.078829
11
21.829159
21
267.078829
0
LINE
8
Layer 1
10
21.829159
20
267.078829
11
21.829159
21
264.180815
0
LINE
8
Layer 1
10
21.829159
20
264.180815
11
13.017293
21
264.180815
0
LINE
8
Layer 1
10
13.017293
20
264.180815
11
13.017293
21
267.078829
0
LINE
8
Layer 1
10
13.017293
20
267.078829
11
13.017293
21
267.078829
0
LINE
8
Layer 1
10
34.034098
20
267.078829
11
42.845447
21
267.078829
0
LINE
8
Layer 1
10
42.845447
20
267.078829
11
42.845447
21
264.180815
0
LINE
8
Layer 1
10
42.845447
20
264.180815
11
34.034098
21
264.180815
0
LINE
8
Layer 1
10
34.034098
20
264.180815
11
34.034098
21
267.078829
0
LINE
8
Layer 1
10
34.034098
20
267.078829
11
34.034098
21
267.078829
 0 
ENDSEC
 0 
EOF